<?xml version="1.0" encoding="UTF-8"?>
<svg version="1.1" xmlns="http://www.w3.org/2000/svg" width="552" height="228">
<path d="M0 0 C182.16 0 364.32 0 552 0 C552 75.24 552 150.48 552 228 C369.84 228 187.68 228 0 228 C0 152.76 0 77.52 0 0 Z " fill="#0A0A0C" transform="translate(0,0)"/>
<path d="M0 0 C33.66 0 67.32 0 102 0 C102 2.97 102 5.94 102 9 C104.97 9 107.94 9 111 9 C111 38.7 111 68.4 111 99 C76.02 99 41.04 99 5 99 C5 93.06 5 87.12 5 81 C3.35 81 1.7 81 0 81 C0 72.75 0 64.5 0 56 C33.66 56 67.32 56 102 56 C102 64.25 102 72.5 102 81 C71.97 81 41.94 81 11 81 C11 84.96 11 88.92 11 93 C42.02 93 73.04 93 105 93 C105 67.59 105 42.18 105 16 C104.01 16 103.02 16 102 16 C102 18.97 102 21.94 102 25 C71.97 25 41.94 25 11 25 C11 28.96 11 32.92 11 37 C31.13 37 51.26 37 72 37 C72 34.03 72 31.06 72 28 C81.9 28 91.8 28 102 28 C102 36.25 102 44.5 102 53 C92.1 53 82.2 53 72 53 C72 49.7 72 46.4 72 43 C49.89 43 27.78 43 5 43 C5 37.06 5 31.12 5 25 C3.35 25 1.7 25 0 25 C0 16.75 0 8.5 0 0 Z " fill="#F5F5F5" transform="translate(302,76)"/>
<path d="M0 0 C15.51 0 31.02 0 47 0 C47 3.3 47 6.6 47 10 C56.9 10 66.8 10 77 10 C77 6.7 77 3.4 77 0 C77.99 0 78.98 0 80 0 C80 25.74 80 51.48 80 78 C75.38 78 70.76 78 66 78 C66 87.24 66 96.48 66 106 C39.6 106 13.2 106 -14 106 C-14 102.04 -14 98.08 -14 94 C11.41 94 36.82 94 63 94 C63 85.75 63 77.5 63 69 C41.88 69 20.76 69 -1 69 C-0.67 46.23 -0.34 23.46 0 0 Z " fill="#0C0C0E" transform="translate(212,63)"/>
<path d="M0 0 C9.9 0 19.8 0 30 0 C30 2.97 30 5.94 30 9 C33.3 9 36.6 9 40 9 C40 38.7 40 68.4 40 99 C35.05 99 30.1 99 25 99 C25 108.24 25 117.48 25 127 C-5.36 127 -35.72 127 -67 127 C-67 121.06 -67 115.12 -67 109 C-68.32 109 -69.64 109 -71 109 C-71 105.7 -71 102.4 -71 99 C-74.3 99 -77.6 99 -81 99 C-81 93.06 -81 87.12 -81 81 C-82.65 81 -84.3 81 -86 81 C-86 72.75 -86 64.5 -86 56 C-76.1 56 -66.2 56 -56 56 C-56 64.25 -56 72.5 -56 81 C-62.27 81 -68.54 81 -75 81 C-75 84.96 -75 88.92 -75 93 C-74.01 93 -73.02 93 -72 93 C-72 90.03 -72 87.06 -72 84 C-42.96 84 -13.92 84 16 84 C16 92.25 16 100.5 16 109 C-9.41 109 -34.82 109 -61 109 C-61 112.96 -61 116.92 -61 121 C-34.6 121 -8.2 121 19 121 C19 111.76 19 102.52 19 93 C23.62 93 28.24 93 33 93 C33 67.26 33 41.52 33 15 C32.01 15 31.02 15 30 15 C30 18.3 30 21.6 30 25 C20.1 25 10.2 25 0 25 C0 21.7 0 18.4 0 15 C-15.51 15 -31.02 15 -47 15 C-47 37.11 -47 59.22 -47 82 C-47.66 82 -48.32 82 -49 82 C-49 59.23 -49 36.46 -49 13 C-32.83 13 -16.66 13 0 13 C0 12.34 0 11.68 0 11 C-16.5 11 -33 11 -50 11 C-50 34.43 -50 57.86 -50 82 C-50.99 82 -51.98 82 -53 82 C-53 57.91 -53 33.82 -53 9 C-35.51 9 -18.02 9 0 9 C0 6.03 0 3.06 0 0 Z " fill="#F4F4F4" transform="translate(259,48)"/>
<path d="M0 0 C19.47 0 38.94 0 59 0 C59 8.25 59 16.5 59 25 C43.16 25 27.32 25 11 25 C11 28.96 11 32.92 11 37 C12.32 37 13.64 37 15 37 C15 34.03 15 31.06 15 28 C24.9 28 34.8 28 45 28 C45 36.25 45 44.5 45 53 C38.4 53 31.8 53 25 53 C25 56.96 25 60.92 25 65 C32.59 65 40.18 65 48 65 C48 55.76 48 46.52 48 37 C52.62 37 57.24 37 62 37 C62 27.76 62 18.52 62 9 C65.3 9 68.6 9 72 9 C72 6.03 72 3.06 72 0 C81.9 0 91.8 0 102 0 C102 8.25 102 16.5 102 25 C92.1 25 82.2 25 72 25 C72 22.03 72 19.06 72 16 C71.01 16 70.02 16 69 16 C69 24.91 69 33.82 69 43 C64.05 43 59.1 43 54 43 C54 52.24 54 61.48 54 71 C42.45 71 30.9 71 19 71 C19 65.06 19 59.12 19 53 C17.68 53 16.36 53 15 53 C15 49.7 15 46.4 15 43 C11.7 43 8.4 43 5 43 C5 37.06 5 31.12 5 25 C3.35 25 1.7 25 0 25 C0 22.03 0 19.06 0 16 C-0.99 16 -1.98 16 -3 16 C-3 43.39 -3 70.78 -3 99 C-14.55 99 -26.1 99 -38 99 C-38 93.06 -38 87.12 -38 81 C-39.65 81 -41.3 81 -43 81 C-43 72.75 -43 64.5 -43 56 C-33.1 56 -23.2 56 -13 56 C-13 64.25 -13 72.5 -13 81 C-19.27 81 -25.54 81 -32 81 C-32 84.96 -32 88.92 -32 93 C-24.41 93 -16.82 93 -9 93 C-9 65.28 -9 37.56 -9 9 C-6.03 9 -3.06 9 0 9 C0 6.03 0 3.06 0 0 Z " fill="#F3F3F3" transform="translate(58,76)"/>
<path d="M0 0 C14.52 0 29.04 0 44 0 C44 2.97 44 5.94 44 9 C47.3 9 50.6 9 54 9 C54 57.18 54 105.36 54 155 C42.45 155 30.9 155 19 155 C19 149.06 19 143.12 19 137 C17.35 137 15.7 137 14 137 C14 128.75 14 120.5 14 112 C23.9 112 33.8 112 44 112 C44 120.25 44 128.5 44 137 C37.73 137 31.46 137 25 137 C25 140.96 25 144.92 25 149 C32.26 149 39.52 149 47 149 C47 104.78 47 60.56 47 15 C46.01 15 45.02 15 44 15 C44 18.3 44 21.6 44 25 C29.48 25 14.96 25 0 25 C0 16.75 0 8.5 0 0 Z " fill="#F4F4F4" transform="translate(116,20)"/>
<path d="M0 0 C33.66 0 67.32 0 102 0 C102 2.97 102 5.94 102 9 C104.97 9 107.94 9 111 9 C111 20.22 111 31.44 111 43 C87.24 43 63.48 43 39 43 C39 46.63 39 50.26 39 54 C38.34 54 37.68 54 37 54 C37 49.71 37 45.42 37 41 C60.76 41 84.52 41 109 41 C109 31.1 109 21.2 109 11 C106.69 11 104.38 11 102 11 C102 11.66 102 12.32 102 13 C103.98 13 105.96 13 108 13 C108 21.58 108 30.16 108 39 C84.24 39 60.48 39 36 39 C36 43.95 36 48.9 36 54 C35.01 54 34.02 54 33 54 C33 48.39 33 42.78 33 37 C56.76 37 80.52 37 105 37 C105 30.07 105 23.14 105 16 C104.01 16 103.02 16 102 16 C102 18.97 102 21.94 102 25 C68.34 25 34.68 25 0 25 C0 16.75 0 8.5 0 0 Z " fill="#F5F5F5" transform="translate(302,20)"/>
<path d="M0 0 C9.9 0 19.8 0 30 0 C30 2.97 30 5.94 30 9 C33.3 9 36.6 9 40 9 C40 57.18 40 105.36 40 155 C28.45 155 16.9 155 5 155 C5 149.06 5 143.12 5 137 C3.35 137 1.7 137 0 137 C0 128.75 0 120.5 0 112 C9.9 112 19.8 112 30 112 C30 120.25 30 128.5 30 137 C23.73 137 17.46 137 11 137 C11 140.96 11 144.92 11 149 C18.59 149 26.18 149 34 149 C34 104.78 34 60.56 34 15 C32.68 15 31.36 15 30 15 C30 18.3 30 21.6 30 25 C20.1 25 10.2 25 0 25 C0 16.75 0 8.5 0 0 Z " fill="#F3F3F3" transform="translate(488,20)"/>
<path d="M0 0 C33.33 0 66.66 0 101 0 C101 8.25 101 16.5 101 25 C67.67 25 34.34 25 0 25 C0 16.75 0 8.5 0 0 Z " fill="#F6F6F6" transform="translate(417,76)"/>
<path d="M0 0 C9.9 0 19.8 0 30 0 C30 8.25 30 16.5 30 25 C20.43 25 10.86 25 1 25 C1 21.7 1 18.4 1 15 C-9.89 15 -20.78 15 -32 15 C-32 33.48 -32 51.96 -32 71 C-43.55 71 -55.1 71 -67 71 C-67 65.06 -67 59.12 -67 53 C-68.32 53 -69.64 53 -71 53 C-71 44.75 -71 36.5 -71 28 C-61.1 28 -51.2 28 -41 28 C-41 36.25 -41 44.5 -41 53 C-47.6 53 -54.2 53 -61 53 C-61 56.96 -61 60.92 -61 65 C-53.41 65 -45.82 65 -38 65 C-38 46.52 -38 28.04 -38 9 C-25.46 9 -12.92 9 0 9 C0 6.03 0 3.06 0 0 Z " fill="#F3F3F3" transform="translate(488,104)"/>
<path d="M0 0 C29.04 0 58.08 0 88 0 C88 2.97 88 5.94 88 9 C90.97 9 93.94 9 97 9 C97 14.61 97 20.22 97 26 C96.34 26 95.68 26 95 26 C95 21.05 95 16.1 95 11 C92.69 11 90.38 11 88 11 C88 11.66 88 12.32 88 13 C89.65 13 91.3 13 93 13 C93 17.29 93 21.58 93 26 C92.34 26 91.68 26 91 26 C91 22.7 91 19.4 91 16 C90.01 16 89.02 16 88 16 C88 18.97 88 21.94 88 25 C58.96 25 29.92 25 0 25 C0 16.75 0 8.5 0 0 Z " fill="#F4F4F4" transform="translate(187,20)"/>
<path d="M0 0 C19.47 0 38.94 0 59 0 C59 2.97 59 5.94 59 9 C62.3 9 65.6 9 69 9 C69 14.61 69 20.22 69 26 C68.01 26 67.02 26 66 26 C66 21.05 66 16.1 66 11 C63.69 11 61.38 11 59 11 C59 11.66 59 12.32 59 13 C60.98 13 62.96 13 65 13 C65 17.29 65 21.58 65 26 C64.01 26 63.02 26 62 26 C62 22.37 62 18.74 62 15 C61.01 15 60.02 15 59 15 C59 18.3 59 21.6 59 25 C39.53 25 20.06 25 0 25 C0 16.75 0 8.5 0 0 Z " fill="#F2F2F2" transform="translate(15,48)"/>
<path d="M0 0 C19.47 0 38.94 0 59 0 C59 8.25 59 16.5 59 25 C39.53 25 20.06 25 0 25 C0 16.75 0 8.5 0 0 Z " fill="#F3F3F3" transform="translate(101,48)"/>
<path d="M0 0 C14.85 0 29.7 0 45 0 C45 2.97 45 5.94 45 9 C47.97 9 50.94 9 54 9 C54 14.61 54 20.22 54 26 C53.34 26 52.68 26 52 26 C52 21.05 52 16.1 52 11 C49.69 11 47.38 11 45 11 C45 11.66 45 12.32 45 13 C46.65 13 48.3 13 50 13 C50 17.29 50 21.58 50 26 C49.34 26 48.68 26 48 26 C48 22.7 48 19.4 48 16 C47.01 16 46.02 16 45 16 C45 18.97 45 21.94 45 25 C30.15 25 15.3 25 0 25 C0 16.75 0 8.5 0 0 Z " fill="#F2F2F2" transform="translate(15,20)"/>
<path d="M0 0 C14.52 0 29.04 0 44 0 C44 2.97 44 5.94 44 9 C46.97 9 49.94 9 53 9 C53.16502485 23.35716167 52.65520257 37.65873091 52 52 C51.67 52 51.34 52 51 52 C51 38.47 51 24.94 51 11 C48.69 11 46.38 11 44 11 C44 11.66 44 12.32 44 13 C45.65 13 47.3 13 49 13 C49 13.99 49 14.98 49 16 C46.525 15.505 46.525 15.505 44 15 C44 18.3 44 21.6 44 25 C29.48 25 14.96 25 0 25 C0 16.75 0 8.5 0 0 Z " fill="#F5F5F5" transform="translate(116,20)"/>
<path d="M0 0 C9.9 0 19.8 0 30 0 C30 8.25 30 16.5 30 25 C20.43 25 10.86 25 1 25 C1 21.7 1 18.4 1 15 C-9.89 15 -20.78 15 -32 15 C-32 33.48 -32 51.96 -32 71 C-43.55 71 -55.1 71 -67 71 C-67 65.06 -67 59.12 -67 53 C-66.01 53 -65.02 53 -64 53 C-64 58.28 -64 63.56 -64 69 C-54.1 69 -44.2 69 -34 69 C-34 50.52 -34 32.04 -34 13 C-22.45 13 -10.9 13 1 13 C1 12.34 1 11.68 1 11 C-11.21 11 -23.42 11 -36 11 C-36 15.29 -36 19.58 -36 24 C-36.66 24.33 -37.32 24.66 -38 25 C-38 19.72 -38 14.44 -38 9 C-25.46 9 -12.92 9 0 9 C0 6.03 0 3.06 0 0 Z " fill="#F4F4F4" transform="translate(488,104)"/>
<path d="M0 0 C9.9 0 19.8 0 30 0 C30 2.97 30 5.94 30 9 C32.97 9 35.94 9 39 9 C39 23.85 39 38.7 39 54 C38.34 54 37.68 54 37 54 C37 39.81 37 25.62 37 11 C34.69 11 32.38 11 30 11 C30 11.66 30 12.32 30 13 C31.98 13 33.96 13 36 13 C36 26.53 36 40.06 36 54 C35.01 54 34.02 54 33 54 C33 41.46 33 28.92 33 16 C32.01 16 31.02 16 30 16 C30 18.97 30 21.94 30 25 C20.1 25 10.2 25 0 25 C0 16.75 0 8.5 0 0 Z " fill="#F3F3F3" transform="translate(417,20)"/>
<path d="M0 0 C9.9 0 19.8 0 30 0 C30 8.25 30 16.5 30 25 C20.1 25 10.2 25 0 25 C0 22.03 0 19.06 0 16 C-0.99 16 -1.98 16 -3 16 C-3 24.91 -3 33.82 -3 43 C-3.99 42.34 -4.98 41.68 -6 41 C-6.34057617 38.20263672 -6.34057617 38.20263672 -6.29296875 34.6796875 C-6.28330078 33.42285156 -6.27363281 32.16601562 -6.26367188 30.87109375 C-6.23853516 29.55238281 -6.21339844 28.23367187 -6.1875 26.875 C-6.17245483 25.53517097 -6.15876613 24.19532596 -6.14648438 22.85546875 C-6.11102872 19.56991158 -6.06160849 16.28515418 -6 13 C-4.02 13 -2.04 13 0 13 C0 12.34 0 11.68 0 11 C-2.97 11 -5.94 11 -9 11 C-9 10.34 -9 9.68 -9 9 C-6.03 9 -3.06 9 0 9 C0 6.03 0 3.06 0 0 Z " fill="#F0F0F0" transform="translate(130,76)"/>
<path d="M0 0 C9.9 0 19.8 0 30 0 C30 8.25 30 16.5 30 25 C20.1 25 10.2 25 0 25 C0 16.75 0 8.5 0 0 Z " fill="#F3F3F3" transform="translate(417,104)"/>
<path d="M0 0 C9.9 0 19.8 0 30 0 C30 8.25 30 16.5 30 25 C20.1 25 10.2 25 0 25 C0 16.75 0 8.5 0 0 Z " fill="#F3F3F3" transform="translate(259,104)"/>
<path d="M0 0 C9.9 0 19.8 0 30 0 C30 8.25 30 16.5 30 25 C20.1 25 10.2 25 0 25 C0 16.75 0 8.5 0 0 Z " fill="#F3F3F3" transform="translate(130,104)"/>
<path d="M0 0 C9.9 0 19.8 0 30 0 C30 8.25 30 16.5 30 25 C20.1 25 10.2 25 0 25 C0 16.75 0 8.5 0 0 Z " fill="#F2F2F2" transform="translate(15,104)"/>
<path d="M0 0 C9.9 0 19.8 0 30 0 C30 8.25 30 16.5 30 25 C20.1 25 10.2 25 0 25 C0 16.75 0 8.5 0 0 Z " fill="#F3F3F3" transform="translate(259,76)"/>
<path d="M0 0 C9.9 0 19.8 0 30 0 C30 8.25 30 16.5 30 25 C20.1 25 10.2 25 0 25 C0 16.75 0 8.5 0 0 Z " fill="#F3F3F3" transform="translate(173,76)"/>
<path d="M0 0 C9.9 0 19.8 0 30 0 C30 8.25 30 16.5 30 25 C20.1 25 10.2 25 0 25 C0 16.75 0 8.5 0 0 Z " fill="#F2F2F2" transform="translate(15,76)"/>
<path d="M0 0 C9.9 0 19.8 0 30 0 C30 8.25 30 16.5 30 25 C20.1 25 10.2 25 0 25 C0 16.75 0 8.5 0 0 Z " fill="#F2F2F2" transform="translate(488,48)"/>
<path d="M0 0 C9.9 0 19.8 0 30 0 C30 8.25 30 16.5 30 25 C20.1 25 10.2 25 0 25 C0 16.75 0 8.5 0 0 Z " fill="#F3F3F3" transform="translate(417,48)"/>
<path d="M0 0 C9.9 0 19.8 0 30 0 C30 8.25 30 16.5 30 25 C20.1 25 10.2 25 0 25 C0 16.75 0 8.5 0 0 Z " fill="#F3F3F3" transform="translate(302,48)"/>
<path d="M0 0 C9.9 0 19.8 0 30 0 C30 8.25 30 16.5 30 25 C20.1 25 10.2 25 0 25 C0 16.75 0 8.5 0 0 Z " fill="#F3F3F3" transform="translate(173,48)"/>
<path d="M0 0 C0.33 0 0.66 0 1 0 C1 48.18 1 96.36 1 146 C0.01 145.01 0.01 145.01 -1 144 C-4.20813626 143.72082705 -4.20813626 143.72082705 -7.9765625 143.8046875 C-8.66181 143.8075174 -9.3470575 143.81034729 -10.05307007 143.81326294 C-12.24389027 143.82446719 -14.43430316 143.84957141 -16.625 143.875 C-18.1093691 143.88502952 -19.5937446 143.89415542 -21.078125 143.90234375 C-24.71903356 143.92270677 -28.35906032 143.96185279 -32 144 C-32 138.72 -32 133.44 -32 128 C-31.34 128 -30.68 128 -30 128 C-30 132.62 -30 137.24 -30 142 C-21.09 142 -12.18 142 -3 142 C-3 96.46 -3 50.92 -3 4 C-4.98 4 -6.96 4 -9 4 C-9 3.34 -9 2.68 -9 2 C-6.69 2 -4.38 2 -2 2 C-1.505 9.92 -1.505 9.92 -1 18 C-0.67 12.06 -0.34 6.12 0 0 Z " fill="#C9C9C9" transform="translate(169,29)"/>
<path d="M0 0 C0.33 0 0.66 0 1 0 C1 45.54 1 91.08 1 138 C0.01 137.34 -0.98 136.68 -2 136 C-2.36914349 133.67679405 -2.36914349 133.67679405 -2.36076355 130.71029663 C-2.36488754 129.58846481 -2.36901154 128.466633 -2.3732605 127.31080627 C-2.36247467 126.0743486 -2.35168884 124.83789093 -2.34057617 123.56396484 C-2.34101425 122.26644791 -2.34145233 120.96893097 -2.34190369 119.63209534 C-2.34276652 116.06815404 -2.32509452 112.50451396 -2.30418181 108.94064283 C-2.28546281 105.21838872 -2.28366836 101.49612815 -2.28010559 97.77383423 C-2.27077103 90.72251494 -2.24613828 83.67133474 -2.21605712 76.62007678 C-2.18255689 68.59360056 -2.16603814 60.56711779 -2.15097082 52.54058909 C-2.11958986 36.0269779 -2.0668021 19.51350668 -2 3 C-1.34 3 -0.68 3 0 3 C0 2.01 0 1.02 0 0 Z " fill="#D7D7D7" transform="translate(165,33)"/>
<path d="M0 0 C2.64 0 5.28 0 8 0 C8 46.86 8 93.72 8 142 C-1.9 142 -11.8 142 -22 142 C-22 136.72 -22 131.44 -22 126 C-21.67 126 -21.34 126 -21 126 C-21 130.62 -21 135.24 -21 140 C-12.09 140 -3.18 140 6 140 C6 94.46 6 48.92 6 2 C4.02 2 2.04 2 0 2 C0 1.34 0 0.68 0 0 Z " fill="#525254" transform="translate(518,31)"/>
<path d="M0 0 C0.495 0.99 0.495 0.99 1 2 C3.97 2 6.94 2 10 2 C10 2.66 10 3.32 10 4 C8.02 4 6.04 4 4 4 C4 13.24 4 22.48 4 32 C-0.62 32 -5.24 32 -10 32 C-10 41.24 -10 50.48 -10 60 C-19.9 60 -29.8 60 -40 60 C-40 54.72 -40 49.44 -40 44 C-39.67 44 -39.34 44 -39 44 C-39 48.62 -39 53.24 -39 58 C-30.09 58 -21.18 58 -12 58 C-12.66 57.34 -13.32 56.68 -14 56 C-14.22705078 53.20263672 -14.22705078 53.20263672 -14.1953125 49.6796875 C-14.18886719 48.42285156 -14.18242188 47.16601562 -14.17578125 45.87109375 C-14.15902344 44.55238281 -14.14226562 43.23367187 -14.125 41.875 C-14.11496983 40.53516279 -14.10584404 39.19531848 -14.09765625 37.85546875 C-14.07402148 34.57023624 -14.0381495 31.28509602 -14 28 C-9.38 28 -4.76 28 0 28 C0 18.76 0 9.52 0 0 Z " fill="#5E5E60" transform="translate(120,85)"/>
<path d="M0 0 C2.31 0 4.62 0 7 0 C7 28.38 7 56.76 7 86 C-26.66 86 -60.32 86 -95 86 C-95 80.72 -95 75.44 -95 70 C-94.34 70 -93.68 70 -93 70 C-93 74.62 -93 79.24 -93 84 C-60.33 84 -27.66 84 6 84 C6 56.94 6 29.88 6 2 C4.02 2 2.04 2 0 2 C0 1.34 0 0.68 0 0 Z " fill="#383839" transform="translate(404,87)"/>
<path d="M0 0 C0.33 0 0.66 0 1 0 C1 5.28 1 10.56 1 16 C-3.62 16 -8.24 16 -13 16 C-13 25.24 -13 34.48 -13 44 C-43.03 44 -73.06 44 -104 44 C-104 38.39 -104 32.78 -104 27 C-103.67 27 -103.34 27 -103 27 C-103 31.95 -103 36.9 -103 42 C-73.96 42 -44.92 42 -15 42 C-15 32.76 -15 23.52 -15 14 C-10.05 14 -5.1 14 0 14 C0 9.38 0 4.76 0 0 Z " fill="#F8F8F8" transform="translate(297,131)"/>
<path d="M0 0 C2.64 0 5.28 0 8 0 C8 0.66 8 1.32 8 2 C6.02 2 4.04 2 2 2 C2 29.72 2 57.44 2 86 C-7.9 86 -17.8 86 -28 86 C-28 80.72 -28 75.44 -28 70 C-27.67 70 -27.34 70 -27 70 C-27 74.62 -27 79.24 -27 84 C-18.09 84 -9.18 84 0 84 C0 56.28 0 28.56 0 0 Z " fill="#4F4F51" transform="translate(51,87)"/>
<path d="M0 0 C0.33 0 0.66 0 1 0 C1 8.58 1 17.16 1 26 C-22.76 26 -46.52 26 -71 26 C-71 30.95 -71 35.9 -71 41 C-71.99 41 -72.98 41 -74 41 C-74 35.39 -74 29.78 -74 24 C-50.24 24 -26.48 24 -2 24 C-2 20.04 -2 16.08 -2 12 C-1.67 11.67 -1.34 11.34 -1 11 C-0.76636119 9.15108054 -0.58696365 7.29511969 -0.4375 5.4375 C-0.31181641 3.91962891 -0.31181641 3.91962891 -0.18359375 2.37109375 C-0.12300781 1.58863281 -0.06242187 0.80617187 0 0 Z " fill="#EFEFEF" transform="translate(409,33)"/>
<path d="M0 0 C2.31 0 4.62 0 7 0 C7 46.86 7 93.72 7 142 C-2.9 142 -12.8 142 -23 142 C-23 136.72 -23 131.44 -23 126 C-22.34 126 -21.68 126 -21 126 C-21 130.62 -21 135.24 -21 140 C-12.09 140 -3.18 140 6 140 C6 94.46 6 48.92 6 2 C4.02 2 2.04 2 0 2 C0 1.34 0 0.68 0 0 Z " fill="#0D0D0F" transform="translate(160,31)"/>
<path d="M0 0 C0.33 0 0.66 0 1 0 C1 27.06 1 54.12 1 82 C0.01 81.34 -0.98 80.68 -2 80 C-2.28666087 77.48611883 -2.37862623 75.21925087 -2.34057617 72.70458984 C-2.34101425 71.95327286 -2.34145233 71.20195587 -2.34190369 70.4278717 C-2.33980969 67.93863142 -2.31645062 65.45006045 -2.29296875 62.9609375 C-2.28737495 61.23744067 -2.28310383 59.51393909 -2.28010559 57.79043579 C-2.26863976 53.24962237 -2.2391578 48.70909588 -2.20599365 44.168396 C-2.1753301 39.53678265 -2.16160822 34.90512304 -2.14648438 30.2734375 C-2.11428963 21.18216545 -2.06307243 12.09110657 -2 3 C-1.34 3 -0.68 3 0 3 C0 2.01 0 1.02 0 0 Z " fill="#D7D7D7" transform="translate(294,61)"/>
<path d="M0 0 C0.33 0 0.66 0 1 0 C1 29.7 1 59.4 1 90 C0.01 89.34 -0.98 88.68 -2 88 C-2.36749268 85.06887817 -2.36749268 85.06887817 -2.35644531 81.26220703 C-2.35951187 80.22266624 -2.35951187 80.22266624 -2.36264038 79.16212463 C-2.36565859 76.86042245 -2.34712323 74.55943023 -2.328125 72.2578125 C-2.32506561 70.65274228 -2.32319086 69.0476694 -2.32244873 67.44259644 C-2.31783722 64.06807373 -2.30339252 60.69378851 -2.28125 57.31933594 C-2.25319405 53.02485753 -2.2420615 48.73056786 -2.2375679 44.43600655 C-2.23236547 40.3140849 -2.21784215 36.19220909 -2.203125 32.0703125 C-2.20124428 31.29699711 -2.19936356 30.52368172 -2.19742584 29.72693253 C-2.124166 6.37249801 -2.124166 6.37249801 0 0 Z " fill="#C9C9CA" transform="translate(298,57)"/>
<path d="M0 0 C0.33 0.66 0.66 1.32 1 2 C1.66 2 2.32 2 3 2 C3 25.43 3 48.86 3 73 C2.01 73 1.02 73 0 73 C0 48.91 0 24.82 0 0 Z " fill="#D6D6D6" transform="translate(206,57)"/>
<path d="M0 0 C12.21 0 24.42 0 37 0 C37 0.66 37 1.32 37 2 C25.45 2 13.9 2 2 2 C2 20.48 2 38.96 2 58 C-7.9 58 -17.8 58 -28 58 C-28 52.72 -28 47.44 -28 42 C-27.67 42 -27.34 42 -27 42 C-27 46.62 -27 51.24 -27 56 C-17.76 56 -8.52 56 1 56 C0.67 37.52 0.34 19.04 0 0 Z " fill="#373739" transform="translate(452,115)"/>
<path d="M0 0 C0.33 0 0.66 0 1 0 C1 27.06 1 54.12 1 82 C0.01 81.34 -0.98 80.68 -2 80 C-2.36749268 77.18467712 -2.36749268 77.18467712 -2.35644531 73.54663086 C-2.35848969 72.8847023 -2.36053406 72.22277374 -2.36264038 71.54078674 C-2.36565343 69.34852655 -2.34715836 67.15701476 -2.328125 64.96484375 C-2.32506846 63.44552293 -2.32319154 61.92619932 -2.32244873 60.40687561 C-2.31784257 57.22158093 -2.30340386 54.03653863 -2.28125 50.85131836 C-2.25294329 46.7597769 -2.24203655 42.66843423 -2.2375679 38.57680416 C-2.2334197 35.43964126 -2.22360766 32.30251892 -2.21169281 29.16537666 C-2.2059792 27.65622853 -2.20122412 26.14707646 -2.19742584 24.63792229 C-2.19058317 22.53320263 -2.17696113 20.42864342 -2.16113281 18.32397461 C-2.15430481 17.12421494 -2.14747681 15.92445526 -2.14044189 14.68833923 C-2 12 -2 12 -1 11 C-0.76636119 9.15108054 -0.58696365 7.29511969 -0.4375 5.4375 C-0.35371094 4.42558594 -0.26992188 3.41367188 -0.18359375 2.37109375 C-0.12300781 1.58863281 -0.06242187 0.80617188 0 0 Z " fill="#F1F1F1" transform="translate(409,89)"/>
<path d="M0 0 C0.33 0 0.66 0 1 0 C1 5.28 1 10.56 1 16 C-3.62 16 -8.24 16 -13 16 C-13 25.24 -13 34.48 -13 44 C-24.22 44 -35.44 44 -47 44 C-47 38.39 -47 32.78 -47 27 C-46.67 27 -46.34 27 -46 27 C-46 31.95 -46 36.9 -46 42 C-35.77 42 -25.54 42 -15 42 C-15 32.76 -15 23.52 -15 14 C-10.05 14 -5.1 14 0 14 C0 9.38 0 4.76 0 0 Z " fill="#F8F8F8" transform="translate(125,103)"/>
<path d="M0 0 C0.66 0 1.32 0 2 0 C2 4.62 2 9.24 2 14 C22.79 14 43.58 14 65 14 C65 14.66 65 15.32 65 16 C43.55 16 22.1 16 0 16 C0 10.72 0 5.44 0 0 Z " fill="#434344" transform="translate(309,101)"/>
<path d="M0 0 C0.66 0 1.32 0 2 0 C2 14.19 2 28.38 2 43 C1.01 42.34 0.02 41.68 -1 41 C-1.27897038 37.96094254 -1.37167364 35.12842703 -1.328125 32.08984375 C-1.32625183 31.20720352 -1.32437866 30.32456329 -1.32244873 29.41517639 C-1.31572096 27.54814887 -1.30179213 25.68113562 -1.28125 23.81420898 C-1.25008874 20.94566863 -1.24028019 18.07767719 -1.234375 15.20898438 C-1.22520566 13.39843075 -1.21483011 11.58788275 -1.203125 9.77734375 C-1.19887512 8.91382797 -1.19462524 8.05031219 -1.19024658 7.16062927 C-1.11714689 1.11714689 -1.11714689 1.11714689 0 0 Z " fill="#EFEFEF" transform="translate(451,128)"/>
<path d="M0 0 C0.33 0 0.66 0 1 0 C1 13.53 1 27.06 1 41 C0.01 41 -0.98 41 -2 41 C-2.02465746 36.8882744 -2.04283959 32.77657722 -2.05493164 28.66479492 C-2.0599708 27.26504772 -2.06680216 25.8653058 -2.07543945 24.46557617 C-2.0875232 22.45754223 -2.09269807 20.44947043 -2.09765625 18.44140625 C-2.10289307 17.23170166 -2.10812988 16.02199707 -2.11352539 14.77563477 C-2 12 -2 12 -1 11 C-0.76636119 9.15108054 -0.58696365 7.29511969 -0.4375 5.4375 C-0.35371094 4.42558594 -0.26992188 3.41367187 -0.18359375 2.37109375 C-0.12300781 1.58863281 -0.06242187 0.80617187 0 0 Z " fill="#C8C8C9" transform="translate(452,33)"/>
<path d="M0 0 C0.66 0 1.32 0 2 0 C2 4.62 2 9.24 2 14 C10.91 14 19.82 14 29 14 C29 14.66 29 15.32 29 16 C19.43 16 9.86 16 0 16 C0 10.72 0 5.44 0 0 Z " fill="#454547" transform="translate(137,157)"/>
<path d="M0 0 C0.33 0.66 0.66 1.32 1 2 C1.66 2 2.32 2 3 2 C3 11.24 3 20.48 3 30 C2.01 29.34 1.02 28.68 0 28 C-0.34057617 25.20263672 -0.34057617 25.20263672 -0.29296875 21.6796875 C-0.28330078 20.42285156 -0.27363281 19.16601562 -0.26367188 17.87109375 C-0.23853516 16.55238281 -0.21339844 15.23367187 -0.1875 13.875 C-0.17245483 12.53517097 -0.15876613 11.19532596 -0.14648438 9.85546875 C-0.11102872 6.56991158 -0.06160849 3.28515418 0 0 Z " fill="#D6D6D6" transform="translate(120,85)"/>
<path d="M0 0 C0.33 0 0.66 0 1 0 C1 12.87 1 25.74 1 39 C0.01 38.67 -0.98 38.34 -2 38 C-2.02886537 33.68751391 -2.04675255 29.37505238 -2.0625 25.0625 C-2.07087891 23.83080078 -2.07925781 22.59910156 -2.08789062 21.33007812 C-2.09111328 20.16025391 -2.09433594 18.99042969 -2.09765625 17.78515625 C-2.10289307 16.70113525 -2.10812988 15.61711426 -2.11352539 14.50024414 C-2 12 -2 12 -1 11 C-0.76636119 9.15108054 -0.58696365 7.29511969 -0.4375 5.4375 C-0.35371094 4.42558594 -0.26992188 3.41367188 -0.18359375 2.37109375 C-0.12300781 1.58863281 -0.06242187 0.80617188 0 0 Z " fill="#B6B6B7" transform="translate(409,89)"/>
<path d="M0 0 C0.33 0 0.66 0 1 0 C1 13.53 1 27.06 1 41 C0.01 40.34 -0.98 39.68 -2 39 C-2.328125 36.21484375 -2.328125 36.21484375 -2.25 32.9375 C-2.23453125 31.85339844 -2.2190625 30.76929688 -2.203125 29.65234375 C-2 27 -2 27 -1 26 C-0.84193469 24.07521187 -0.748865 22.1450079 -0.68359375 20.21484375 C-0.64169922 19.04501953 -0.59980469 17.87519531 -0.55664062 16.66992188 C-0.49766602 14.82237305 -0.49766602 14.82237305 -0.4375 12.9375 C-0.39431641 11.70193359 -0.35113281 10.46636719 -0.30664062 9.19335938 C-0.20015802 6.12902665 -0.09814576 3.06460927 0 0 Z " fill="#A8A8A9" transform="translate(452,130)"/>
<path d="M0 0 C0.33 0 0.66 0 1 0 C1 13.53 1 27.06 1 41 C0.01 40.34 -0.98 39.68 -2 39 C-2.328125 36.21484375 -2.328125 36.21484375 -2.25 32.9375 C-2.23453125 31.85339844 -2.2190625 30.76929688 -2.203125 29.65234375 C-2 27 -2 27 -1 26 C-0.84193469 24.07521187 -0.748865 22.1450079 -0.68359375 20.21484375 C-0.64169922 19.04501953 -0.59980469 17.87519531 -0.55664062 16.66992188 C-0.49766602 14.82237305 -0.49766602 14.82237305 -0.4375 12.9375 C-0.39431641 11.70193359 -0.35113281 10.46636719 -0.30664062 9.19335938 C-0.20015802 6.12902665 -0.09814576 3.06460927 0 0 Z " fill="#A8A8A9" transform="translate(409,130)"/>
<path d="M0 0 C4.62 0 9.24 0 14 0 C14 0.33 14 0.66 14 1 C9.71 1 5.42 1 1 1 C1 9.91 1 18.82 1 28 C0.01 27.34 -0.98 26.68 -2 26 C-2.328125 23.21484375 -2.328125 23.21484375 -2.25 19.9375 C-2.23453125 18.85339844 -2.2190625 17.76929688 -2.203125 16.65234375 C-2 14 -2 14 -1 13 C-0.76518307 10.81707226 -0.58636677 8.62796826 -0.4375 6.4375 C-0.293125 4.313125 -0.14875 2.18875 0 0 Z " fill="#A0A0A1" transform="translate(280,143)"/>
<path d="M0 0 C4.62 0 9.24 0 14 0 C14 0.33 14 0.66 14 1 C9.71 1 5.42 1 1 1 C1 9.91 1 18.82 1 28 C0.01 27.34 -0.98 26.68 -2 26 C-2.328125 23.21484375 -2.328125 23.21484375 -2.25 19.9375 C-2.23453125 18.85339844 -2.2190625 17.76929688 -2.203125 16.65234375 C-2 14 -2 14 -1 13 C-0.76518307 10.81707226 -0.58636677 8.62796826 -0.4375 6.4375 C-0.293125 4.313125 -0.14875 2.18875 0 0 Z " fill="#A0A0A1" transform="translate(108,115)"/>
<path d="M0 0 C2.31 0 4.62 0 7 0 C7 4.95 7 9.9 7 15 C7.66 15.33 8.32 15.66 9 16 C7.125 16.625 7.125 16.625 5 17 C4.34 16.34 3.68 15.68 3 15 C3.66 15 4.32 15 5 15 C5 10.71 5 6.42 5 2 C3.35 2 1.7 2 0 2 C0 1.34 0 0.68 0 0 Z " fill="#484849" transform="translate(275,31)"/>
<path d="M0 0 C2.31 0 4.62 0 7 0 C7 4.95 7 9.9 7 15 C7.66 15.33 8.32 15.66 9 16 C7.125 16.625 7.125 16.625 5 17 C4.34 16.34 3.68 15.68 3 15 C3.66 15 4.32 15 5 15 C5 10.71 5 6.42 5 2 C3.35 2 1.7 2 0 2 C0 1.34 0 0.68 0 0 Z " fill="#484849" transform="translate(60,31)"/>
<path d="M0 0 C0.66 0 1.32 0 2 0 C2 4.62 2 9.24 2 14 C3.98 14 5.96 14 8 14 C8 14.66 8 15.32 8 16 C5.36 16 2.72 16 0 16 C0 10.72 0 5.44 0 0 Z " fill="#505052" transform="translate(180,129)"/>
<path d="M0 0 C0.66 0 1.32 0 2 0 C2 4.62 2 9.24 2 14 C3.98 14 5.96 14 8 14 C8 14.66 8 15.32 8 16 C5.36 16 2.72 16 0 16 C0 10.72 0 5.44 0 0 Z " fill="#4F4F50" transform="translate(65,101)"/>
<path d="M0 0 C0.33 0 0.66 0 1 0 C1 8.58 1 17.16 1 26 C0.01 25.34 -0.98 24.68 -2 24 C-2.328125 21.21484375 -2.328125 21.21484375 -2.25 17.9375 C-2.23453125 16.85339844 -2.2190625 15.76929688 -2.203125 14.65234375 C-2 12 -2 12 -1 11 C-0.76636119 9.15108054 -0.58696365 7.29511969 -0.4375 5.4375 C-0.35371094 4.42558594 -0.26992188 3.41367187 -0.18359375 2.37109375 C-0.12300781 1.58863281 -0.06242187 0.80617187 0 0 Z " fill="#B3B3B3" transform="translate(409,33)"/>
</svg>
